<svg width="16" height="19" viewBox="0 0 16 19" fill="none" xmlns="http://www.w3.org/2000/svg">
<g clip-path="url(#clip0_227_2893)">
<path d="M15.4627 6.60196C14.2088 7.37683 13.4343 8.70517 13.4343 10.1811C13.4343 11.8415 14.4301 13.3544 15.9422 13.9816C15.6471 14.941 15.2046 15.8266 14.6513 16.6383C13.84 17.7822 12.9917 18.9629 11.7378 18.9629C10.4838 18.9629 10.115 18.225 8.63981 18.225C7.20146 18.225 6.68514 18.9998 5.50496 18.9998C4.32478 18.9998 3.51341 17.9298 2.59139 16.6014C1.37433 14.7565 0.673599 12.6164 0.636719 10.3656C0.636719 6.71266 2.99708 4.75704 5.35743 4.75704C6.61138 4.75704 7.64403 5.56881 8.41852 5.56881C9.15614 5.56881 10.3363 4.72014 11.7378 4.72014C13.213 4.68324 14.6145 5.38431 15.4627 6.60196ZM11.0739 3.17041C11.7009 2.43244 12.0328 1.50998 12.0697 0.550625C12.0697 0.439929 12.0697 0.292336 12.0328 0.181641C10.9633 0.292336 9.96751 0.808913 9.26678 1.62068C8.63981 2.32175 8.271 3.20731 8.23412 4.16667C8.23412 4.27736 8.23412 4.38806 8.271 4.49875C8.34476 4.49875 8.4554 4.53565 8.52917 4.53565C9.52494 4.46185 10.447 3.94528 11.0739 3.17041Z" fill="white"/>
</g>
<defs>
<clipPath id="clip0_227_2893">
<rect width="15.3054" height="18.8182" fill="white" transform="translate(0.636719 0.181641)"/>
</clipPath>
</defs>
</svg>
